<svg width="576" height="576" viewBox="0 0 576 576" fill="none" xmlns="http://www.w3.org/2000/svg">
<rect width="100%" height="100%" fill="white"/>
<g transform="translate(56,38)" stroke="currentColor" stroke-width="1.6" stroke-linecap="round" stroke-linejoin="round"><path d="M12 3.8l1.15 3.05L16.2 8l-3.05 1.15L12 12.2l-1.15-3.05L7.8 8l3.05-1.15L12 3.8z"/><path d="M18 12.8l.7 1.75 1.75.7-1.75.7L18 17.7l-.7-1.75-1.75-.7 1.75-.7.7-1.75z"/><path d="M6 13.5l.85 2.05L8.9 16.4l-2.05.85L6 19.3l-.85-2.05-2.05-.85 2.05-.85L6 13.5z"/></g>
<text x="68.0" y="88" text-anchor="middle" font-family="Arial, sans-serif" font-size="8.5" fill="currentColor">generate</text>
<g transform="translate(144,38)" stroke="currentColor" stroke-width="1.6" stroke-linecap="round" stroke-linejoin="round"><path d="M4 12h13.6"/><path d="M13.6 6.8L19 12l-5.4 5.2"/></g>
<text x="156.0" y="88" text-anchor="middle" font-family="Arial, sans-serif" font-size="8.5" fill="currentColor">arrow</text>
<g transform="translate(232,38)" stroke="currentColor" stroke-width="1.6" stroke-linecap="round" stroke-linejoin="round"><path d="M8.5 11.5V5.8a1.35 1.35 0 0 1 2.7 0v5"/><path d="M11.2 10V4.9a1.35 1.35 0 0 1 2.7 0v6.1"/><path d="M13.9 10.6V6.2a1.3 1.3 0 0 1 2.6 0v6"/><path d="M16.5 12.2V9.1a1.25 1.25 0 0 1 2.5 0v4.3c0 4-2.7 6.8-6.4 6.8h-1.4c-2.1 0-3.5-.85-4.75-2.3L3.9 15a1.55 1.55 0 0 1 .1-2.25 1.62 1.62 0 0 1 2.2.1l2.3 2.25"/></g>
<text x="244.0" y="88" text-anchor="middle" font-family="Arial, sans-serif" font-size="8.5" fill="currentColor">hand</text>
<g transform="translate(320,38)" stroke="currentColor" stroke-width="1.6" stroke-linecap="round" stroke-linejoin="round"><path d="M4.2 5.8h9.2"/><path d="M8.8 4v1.8"/><path d="M6.4 8.4c1.15 2.25 3.25 4.2 5.9 5.1"/><path d="M11.8 8.4c-.9 2.1-2.75 4.15-5.35 5.35"/><path d="M14.4 20l3.2-8 3.2 8"/><path d="M15.55 17.1h4.1"/></g>
<text x="332.0" y="88" text-anchor="middle" font-family="Arial, sans-serif" font-size="8.5" fill="currentColor">translation</text>
<g transform="translate(408,38)" stroke="currentColor" stroke-width="1.6" stroke-linecap="round" stroke-linejoin="round"><path d="M5 18.8l.8-3.7L15.9 5a2.1 2.1 0 0 1 3 3L8.75 18.05 5 18.8z"/><path d="M14.4 6.5l3.1 3.1"/></g>
<text x="420.0" y="88" text-anchor="middle" font-family="Arial, sans-serif" font-size="8.5" fill="currentColor">edit</text>
<g transform="translate(496,38)" stroke="currentColor" stroke-width="1.6" stroke-linecap="round" stroke-linejoin="round"><path d="M5.1 19.2l1-4.3 9.8-9.8a2 2 0 0 1 2.85 2.85l-9.8 9.8-3.85 1.45z"/><path d="M13.9 7.1l3 3"/><path d="M6.1 14.9l2.85 2.85"/></g>
<text x="508.0" y="88" text-anchor="middle" font-family="Arial, sans-serif" font-size="8.5" fill="currentColor">pen</text>
<g transform="translate(56,126)" stroke="currentColor" stroke-width="1.6" stroke-linecap="round" stroke-linejoin="round"><path d="M7 4.5v6.2a5 5 0 0 0 10 0V4.5"/><path d="M7 4.5h3.1"/><path d="M13.9 4.5H17"/><path d="M7 7.8h3.1"/><path d="M13.9 7.8H17"/></g>
<text x="68.0" y="176" text-anchor="middle" font-family="Arial, sans-serif" font-size="8.5" fill="currentColor">magnetic</text>
<g transform="translate(144,126)" stroke="currentColor" stroke-width="1.6" stroke-linecap="round" stroke-linejoin="round"><path d="M4 9V5h4"/><path d="M20 9V5h-4"/><path d="M4 15v4h4"/><path d="M20 15v4h-4"/><circle cx="12" cy="12" r="2.4"/></g>
<text x="156.0" y="176" text-anchor="middle" font-family="Arial, sans-serif" font-size="8.5" fill="currentColor">focus</text>
<g transform="translate(232,126)" stroke="currentColor" stroke-width="1.6" stroke-linecap="round" stroke-linejoin="round"><path d="M7.1 4.6l8.6 8.6"/><path d="M6 12.4l5.5-5.5 6.1 6.1-4.2 4.2a3.4 3.4 0 0 1-4.8 0L6 14.6a1.55 1.55 0 0 1 0-2.2z"/><path d="M18 15.3s2 2.1 2 3.3a2 2 0 0 1-4 0c0-1.2 2-3.3 2-3.3z"/></g>
<text x="244.0" y="176" text-anchor="middle" font-family="Arial, sans-serif" font-size="8.5" fill="currentColor">color-bucket</text>
<g transform="translate(320,126)" stroke="currentColor" stroke-width="1.6" stroke-linecap="round" stroke-linejoin="round"><path d="M5.2 7.2h13.6"/><path d="M9.2 7.2V5.5a1.3 1.3 0 0 1 1.3-1.3h3a1.3 1.3 0 0 1 1.3 1.3v1.7"/><path d="M7.3 7.2l.75 11.1a1.7 1.7 0 0 0 1.7 1.55h4.5a1.7 1.7 0 0 0 1.7-1.55l.75-11.1"/><path d="M10.4 10.6v5.7"/><path d="M13.6 10.6v5.7"/></g>
<text x="332.0" y="176" text-anchor="middle" font-family="Arial, sans-serif" font-size="8.5" fill="currentColor">delete</text>
<g transform="translate(408,126)" stroke="currentColor" stroke-width="1.6" stroke-linecap="round" stroke-linejoin="round"><path d="M9.1 7.3L5 11.4l4.1 4.1"/><path d="M5.3 11.4h8.1a5.2 5.2 0 0 1 5.2 5.2v.3"/></g>
<text x="420.0" y="176" text-anchor="middle" font-family="Arial, sans-serif" font-size="8.5" fill="currentColor">undo</text>
<g transform="translate(496,126)" stroke="currentColor" stroke-width="1.6" stroke-linecap="round" stroke-linejoin="round"><path d="M14.9 7.3l4.1 4.1-4.1 4.1"/><path d="M18.7 11.4h-8.1a5.2 5.2 0 0 0-5.2 5.2v.3"/></g>
<text x="508.0" y="176" text-anchor="middle" font-family="Arial, sans-serif" font-size="8.5" fill="currentColor">redo</text>
<g transform="translate(56,214)" stroke="currentColor" stroke-width="1.6" stroke-linecap="round" stroke-linejoin="round"><rect x="8" y="7" width="10" height="12" rx="1.8"/><path d="M6 15.8H5.7A1.7 1.7 0 0 1 4 14.1V6.7A1.7 1.7 0 0 1 5.7 5h7.4A1.7 1.7 0 0 1 14.8 6.7V7"/></g>
<text x="68.0" y="264" text-anchor="middle" font-family="Arial, sans-serif" font-size="8.5" fill="currentColor">copy</text>
<g transform="translate(144,214)" stroke="currentColor" stroke-width="1.6" stroke-linecap="round" stroke-linejoin="round"><rect x="7.8" y="7.2" width="10.6" height="10.6" rx="1.8"/><rect x="4.6" y="4.2" width="10.6" height="10.6" rx="1.8"/></g>
<text x="156.0" y="264" text-anchor="middle" font-family="Arial, sans-serif" font-size="8.5" fill="currentColor">duplicate</text>
<g transform="translate(232,214)" stroke="currentColor" stroke-width="1.6" stroke-linecap="round" stroke-linejoin="round"><path d="M8.6 4.7H4.7v3.9"/><path d="M15.4 4.7h3.9v3.9"/><path d="M8.6 19.3H4.7v-3.9"/><path d="M15.4 19.3h3.9v-3.9"/><path d="M4.9 4.9l5 5"/><path d="M19.1 4.9l-5 5"/><path d="M4.9 19.1l5-5"/><path d="M19.1 19.1l-5-5"/></g>
<text x="244.0" y="264" text-anchor="middle" font-family="Arial, sans-serif" font-size="8.5" fill="currentColor">expand</text>
<g transform="translate(320,214)" stroke="currentColor" stroke-width="1.6" stroke-linecap="round" stroke-linejoin="round"><path d="M9.7 4.8v4.9H4.8"/><path d="M14.3 4.8v4.9h4.9"/><path d="M9.7 19.2v-4.9H4.8"/><path d="M14.3 19.2v-4.9h4.9"/><path d="M9.7 9.7L5.1 5.1"/><path d="M14.3 9.7l4.6-4.6"/><path d="M9.7 14.3l-4.6 4.6"/><path d="M14.3 14.3l4.6 4.6"/></g>
<text x="332.0" y="264" text-anchor="middle" font-family="Arial, sans-serif" font-size="8.5" fill="currentColor">shrink</text>
<g transform="translate(408,214)" stroke="currentColor" stroke-width="1.6" stroke-linecap="round" stroke-linejoin="round"><circle cx="10.7" cy="10.7" r="5.7"/><path d="M15.1 15.1l4.1 4.1"/></g>
<text x="420.0" y="264" text-anchor="middle" font-family="Arial, sans-serif" font-size="8.5" fill="currentColor">search</text>
<g transform="translate(496,214)" stroke="currentColor" stroke-width="1.6" stroke-linecap="round" stroke-linejoin="round"><path d="M4.4 6.2l4.8-2 5.6 2 4.8-2v13.6l-4.8 2-5.6-2-4.8 2V6.2z"/><path d="M9.2 4.2v13.6"/><path d="M14.8 6.2v13.6"/></g>
<text x="508.0" y="264" text-anchor="middle" font-family="Arial, sans-serif" font-size="8.5" fill="currentColor">map</text>
<g transform="translate(56,302)" stroke="currentColor" stroke-width="1.6" stroke-linecap="round" stroke-linejoin="round"><rect x="5" y="8.2" width="12.5" height="9.4" rx="1.8"/><path d="M7.2 6.4h9.7A2.1 2.1 0 0 1 19 8.5v6.8"/></g>
<text x="68.0" y="352" text-anchor="middle" font-family="Arial, sans-serif" font-size="8.5" fill="currentColor">flashcards</text>
<g transform="translate(144,302)" stroke="currentColor" stroke-width="1.6" stroke-linecap="round" stroke-linejoin="round"><circle cx="6.5" cy="12.5" r="2"/><circle cx="17.5" cy="6.5" r="2"/><circle cx="17.5" cy="17.5" r="2"/><path d="M8.25 11.55l7.5-4.1"/><path d="M8.25 13.45l7.5 4.1"/></g>
<text x="156.0" y="352" text-anchor="middle" font-family="Arial, sans-serif" font-size="8.5" fill="currentColor">sharing</text>
<g transform="translate(232,302)" stroke="currentColor" stroke-width="1.6" stroke-linecap="round" stroke-linejoin="round"><path d="M7 5.8A1.8 1.8 0 0 1 8.8 4h6.4A1.8 1.8 0 0 1 17 5.8v14l-5-3.2-5 3.2v-14z"/></g>
<text x="244.0" y="352" text-anchor="middle" font-family="Arial, sans-serif" font-size="8.5" fill="currentColor">bookmark</text>
<g transform="translate(320,302)" stroke="currentColor" stroke-width="1.6" stroke-linecap="round" stroke-linejoin="round"><rect x="8.5" y="3.7" width="7" height="11" rx="3.5"/><path d="M5.7 11.2a6.3 6.3 0 0 0 12.6 0"/><path d="M12 17.5v2.8"/><path d="M9.3 20.3h5.4"/></g>
<text x="332.0" y="352" text-anchor="middle" font-family="Arial, sans-serif" font-size="8.5" fill="currentColor">mic</text>
<g transform="translate(408,302)" stroke="currentColor" stroke-width="1.6" stroke-linecap="round" stroke-linejoin="round"><path d="M7.5 6.5h12"/><path d="M7.5 12h12"/><path d="M7.5 17.5h12"/><path d="M4.5 6.5h.1"/><path d="M4.5 12h.1"/><path d="M4.5 17.5h.1"/></g>
<text x="420.0" y="352" text-anchor="middle" font-family="Arial, sans-serif" font-size="8.5" fill="currentColor">list</text>
<g transform="translate(496,302)" stroke="currentColor" stroke-width="1.6" stroke-linecap="round" stroke-linejoin="round"><path d="M12 8.4a3.6 3.6 0 1 0 0 7.2 3.6 3.6 0 0 0 0-7.2z"/><path d="M19.4 13.4v-2.8l-2.1-.4a6.5 6.5 0 0 0-.7-1.65l1.2-1.75-2-2-1.75 1.2c-.52-.3-1.07-.53-1.65-.68L12 3.2H9.2l-.4 2.12c-.58.15-1.13.38-1.65.68L5.4 4.8l-2 2 1.2 1.75c-.3.52-.53 1.07-.7 1.65l-2.1.4v2.8l2.1.4c.17.58.4 1.13.7 1.65L3.4 17.2l2 2 1.75-1.2c.52.3 1.07.53 1.65.7l.4 2.1H12l.4-2.1c.58-.17 1.13-.4 1.65-.7l1.75 1.2 2-2-1.2-1.75c.3-.52.53-1.07.7-1.65l2.1-.4z"/></g>
<text x="508.0" y="352" text-anchor="middle" font-family="Arial, sans-serif" font-size="8.5" fill="currentColor">settings</text>
<g transform="translate(56,390)" stroke="currentColor" stroke-width="1.6" stroke-linecap="round" stroke-linejoin="round"><circle cx="12" cy="8.2" r="3.6"/><path d="M5.6 20a6.4 6.4 0 0 1 12.8 0"/></g>
<text x="68.0" y="440" text-anchor="middle" font-family="Arial, sans-serif" font-size="8.5" fill="currentColor">user</text>
<g transform="translate(144,390)" stroke="currentColor" stroke-width="1.6" stroke-linecap="round" stroke-linejoin="round"><circle cx="9.4" cy="8.6" r="3.1"/><path d="M3.8 19.5a5.6 5.6 0 0 1 11.2 0"/><path d="M15.1 11.3a2.8 2.8 0 1 0-.7-5.45"/><path d="M16.2 19.5h4a4.8 4.8 0 0 0-4.1-4.75"/></g>
<text x="156.0" y="440" text-anchor="middle" font-family="Arial, sans-serif" font-size="8.5" fill="currentColor">users</text>
<g transform="translate(232,390)" stroke="currentColor" stroke-width="1.6" stroke-linecap="round" stroke-linejoin="round"><rect x="3.8" y="5.8" width="16.4" height="12.4" rx="2"/><path d="M8.8 5.8V4.6a1.2 1.2 0 0 1 1.2-1.2h4a1.2 1.2 0 0 1 1.2 1.2v1.2"/><path d="M3.8 11.5h16.4"/><path d="M10 11.5v1.7h4v-1.7"/></g>
<text x="244.0" y="440" text-anchor="middle" font-family="Arial, sans-serif" font-size="8.5" fill="currentColor">workspaces</text>
<g transform="translate(320,390)" stroke="currentColor" stroke-width="1.6" stroke-linecap="round" stroke-linejoin="round"><path d="M14 5h5v5"/><path d="M19 5l-8 8"/><path d="M11.8 6.5H6.7A1.7 1.7 0 0 0 5 8.2v9.1A1.7 1.7 0 0 0 6.7 19h9.1a1.7 1.7 0 0 0 1.7-1.7v-5.1"/></g>
<text x="332.0" y="440" text-anchor="middle" font-family="Arial, sans-serif" font-size="8.5" fill="currentColor">external-link</text>
<g transform="translate(408,390)" stroke="currentColor" stroke-width="1.6" stroke-linecap="round" stroke-linejoin="round"><rect x="4.3" y="5.8" width="15.4" height="14" rx="2"/><path d="M8.2 3.9v3.5"/><path d="M15.8 3.9v3.5"/><path d="M4.3 9.8h15.4"/><path d="M8 13.4h.1"/><path d="M12 13.4h.1"/><path d="M16 13.4h.1"/></g>
<text x="420.0" y="440" text-anchor="middle" font-family="Arial, sans-serif" font-size="8.5" fill="currentColor">calendar</text>
<g transform="translate(496,390)" stroke="currentColor" stroke-width="1.6" stroke-linecap="round" stroke-linejoin="round"><path d="M18 16.3H6c1.1-1.15 1.55-2.55 1.55-4.35V9.4a4.45 4.45 0 0 1 8.9 0v2.55c0 1.8.45 3.2 1.55 4.35z"/><path d="M10.1 18.4a2 2 0 0 0 3.8 0"/></g>
<text x="508.0" y="440" text-anchor="middle" font-family="Arial, sans-serif" font-size="8.5" fill="currentColor">bell</text>
<g transform="translate(56,478)" stroke="currentColor" stroke-width="1.6" stroke-linecap="round" stroke-linejoin="round"><path d="M4.2 6.2c2.6-1 5.1-.7 7.8 1v11c-2.7-1.7-5.2-2-7.8-1V6.2z"/><path d="M19.8 6.2c-2.6-1-5.1-.7-7.8 1v11c2.7-1.7 5.2-2 7.8-1V6.2z"/></g>
<text x="68.0" y="528" text-anchor="middle" font-family="Arial, sans-serif" font-size="8.5" fill="currentColor">study</text>
<g transform="translate(144,478)" stroke="currentColor" stroke-width="1.6" stroke-linecap="round" stroke-linejoin="round"><path d="M12 3.8l7 2.6v5.2c0 4.3-2.7 7.1-7 8.6-4.3-1.5-7-4.3-7-8.6V6.4l7-2.6z"/><path d="M8.8 12.1l2 2 4.5-4.5"/></g>
<text x="156.0" y="528" text-anchor="middle" font-family="Arial, sans-serif" font-size="8.5" fill="currentColor">security</text>
<g transform="translate(232,478)" stroke="currentColor" stroke-width="1.6" stroke-linecap="round" stroke-linejoin="round"><ellipse cx="12" cy="6.3" rx="6.3" ry="2.4"/><path d="M5.7 6.3v5.7c0 1.35 2.8 2.45 6.3 2.45s6.3-1.1 6.3-2.45V6.3"/><path d="M5.7 12v5.7c0 1.35 2.8 2.45 6.3 2.45s6.3-1.1 6.3-2.45V12"/></g>
<text x="244.0" y="528" text-anchor="middle" font-family="Arial, sans-serif" font-size="8.5" fill="currentColor">data</text>
<g transform="translate(320,478)" stroke="currentColor" stroke-width="1.6" stroke-linecap="round" stroke-linejoin="round"><rect x="4.5" y="4.8" width="15" height="14.4" rx="1.8"/><path d="M4.5 9.6h15"/><path d="M4.5 14.4h15"/><path d="M9.5 4.8v14.4"/><path d="M14.5 4.8v14.4"/></g>
<text x="332.0" y="528" text-anchor="middle" font-family="Arial, sans-serif" font-size="8.5" fill="currentColor">sheet</text>
<g transform="translate(408,478)" stroke="currentColor" stroke-width="1.6" stroke-linecap="round" stroke-linejoin="round"><path d="M19.2 9.2a7.1 7.1 0 0 0-12.45-2.4L5 8.75"/><path d="M4.8 5.2v3.6h3.6"/><path d="M4.8 14.8a7.1 7.1 0 0 0 12.45 2.4L19 15.25"/><path d="M19.2 18.8v-3.6h-3.6"/></g>
<text x="420.0" y="528" text-anchor="middle" font-family="Arial, sans-serif" font-size="8.5" fill="currentColor">reload</text>
<g transform="translate(496,478)" stroke="currentColor" stroke-width="1.6" stroke-linecap="round" stroke-linejoin="round"><rect x="4.2" y="4.2" width="4.2" height="4.2" rx="1"/><rect x="9.9" y="4.2" width="4.2" height="4.2" rx="1"/><rect x="15.6" y="4.2" width="4.2" height="4.2" rx="1"/><rect x="4.2" y="9.9" width="4.2" height="4.2" rx="1"/><rect x="9.9" y="9.9" width="4.2" height="4.2" rx="1"/><rect x="15.6" y="9.9" width="4.2" height="4.2" rx="1"/><rect x="4.2" y="15.6" width="4.2" height="4.2" rx="1"/><rect x="9.9" y="15.6" width="4.2" height="4.2" rx="1"/><rect x="15.6" y="15.6" width="4.2" height="4.2" rx="1"/></g>
<text x="508.0" y="528" text-anchor="middle" font-family="Arial, sans-serif" font-size="8.5" fill="currentColor">grid</text>
</svg>