<svg width="24" height="24" viewBox="0 0 24 24" fill="none" stroke="currentColor" xmlns="http://www.w3.org/2000/svg">
  <g stroke="currentColor" stroke-width="1.6" stroke-linecap="round" stroke-linejoin="round">
  <path d="M8.5 11.5V5.8a1.35 1.35 0 0 1 2.7 0v5"/>
  <path d="M11.2 10V4.9a1.35 1.35 0 0 1 2.7 0v6.1"/>
  <path d="M13.9 10.6V6.2a1.3 1.3 0 0 1 2.6 0v6"/>
  <path d="M16.5 12.2V9.1a1.25 1.25 0 0 1 2.5 0v4.3c0 4-2.7 6.8-6.4 6.8h-1.4c-2.1 0-3.5-.85-4.75-2.3L3.9 15a1.55 1.55 0 0 1 .1-2.25 1.62 1.62 0 0 1 2.2.1l2.3 2.25"/>
  </g>
</svg>
