<svg width="24" height="24" viewBox="0 0 24 24" fill="none" stroke="currentColor" xmlns="http://www.w3.org/2000/svg">
  <g stroke="currentColor" stroke-width="1.25" stroke-linecap="round" stroke-linejoin="round">
  <path d="M12 8.4a3.6 3.6 0 1 0 0 7.2 3.6 3.6 0 0 0 0-7.2z"/>
  <path d="M19.4 13.4v-2.8l-2.1-.4a6.5 6.5 0 0 0-.7-1.65l1.2-1.75-2-2-1.75 1.2c-.52-.3-1.07-.53-1.65-.68L12 3.2H9.2l-.4 2.12c-.58.15-1.13.38-1.65.68L5.4 4.8l-2 2 1.2 1.75c-.3.52-.53 1.07-.7 1.65l-2.1.4v2.8l2.1.4c.17.58.4 1.13.7 1.65L3.4 17.2l2 2 1.75-1.2c.52.3 1.07.53 1.65.7l.4 2.1H12l.4-2.1c.58-.17 1.13-.4 1.65-.7l1.75 1.2 2-2-1.2-1.75c.3-.52.53-1.07.7-1.65l2.1-.4z"/>
  </g>
</svg>
