<svg width="74" height="56" viewBox="0 0 74 56" fill="none" xmlns="http://www.w3.org/2000/svg">
<g id="CleverLogo">
<path id="Holder" d="M15.8359 9.34961H57.6641C62.7666 9.34984 66.9871 13.3228 67.2959 18.416L68.5078 38.416C68.8441 43.9648 64.4349 48.6502 58.876 48.6504H14.624C9.06508 48.6502 4.65592 43.9648 4.99219 38.416L6.2041 18.416C6.51289 13.3228 10.7334 9.34984 15.8359 9.34961Z" fill="#F1F1F1" stroke="#333333" stroke-width="0.7"/>
<g id="Folders">
<path id="Folder3" d="M15.9053 6.34961H57.8867C63.1118 6.34975 67.3881 10.5093 67.5332 15.7324L68.0439 34.1211C68.1946 39.5532 63.8317 44.039 58.3975 44.0391H15.3945C9.96035 44.0388 5.59838 39.5532 5.74902 34.1211L6.25977 15.7324C6.40485 10.5094 10.6803 6.34986 15.9053 6.34961Z" fill="white" stroke="#333333" stroke-width="0.7"/>
<path id="Folder2" d="M15.8967 6.35608H52.9368C58.1824 6.35615 62.4672 10.5473 62.5842 15.7916L62.9944 34.1735C63.1151 39.5858 58.7606 44.0386 53.3469 44.0387H15.4866C10.0728 44.0387 5.71843 39.5859 5.83911 34.1735L6.24927 15.7916C6.36626 10.5472 10.651 6.35608 15.8967 6.35608Z" fill="white" stroke="#333333" stroke-width="0.7"/>
<path id="Folder1" d="M15.6985 6.35608H46.4915C51.7631 6.35613 56.0588 10.587 56.1399 15.858L56.4231 34.2399C56.506 39.6267 52.162 44.0384 46.7747 44.0387H15.4163C10.0286 44.0387 5.68397 39.6268 5.76685 34.2399L6.05005 15.858C6.13114 10.5871 10.427 6.35626 15.6985 6.35608Z" fill="white" fill-opacity="0.1" stroke="#333333" stroke-width="0.7"/>
</g>
<g id="Confirm">
<path id="circle" d="M14 33.2998C15.4912 33.2998 16.7002 34.5088 16.7002 36C16.7002 37.4912 15.4912 38.7002 14 38.7002C12.5088 38.7002 11.2998 37.4912 11.2998 36C11.2998 34.5088 12.5088 33.2998 14 33.2998Z" stroke="#333333" stroke-width="0.6"/>
<path id="correct" d="M13 36.1546L13.5942 37L15 35" stroke="#333333" stroke-width="0.6" stroke-linecap="round" stroke-linejoin="round"/>
</g>
</g>
</svg>
