<?xml version="1.0" encoding="UTF-8"?>
<svg id="Layer_1" data-name="Layer 1" xmlns="http://www.w3.org/2000/svg" viewBox="0 0 28.58 20.23">
  <defs>
    <style>
      .cls-1 {
        fill: #f1f1f1;
      }

      .cls-1, .cls-2, .cls-3, .cls-4 {
        stroke: #333;
      }

      .cls-1, .cls-3, .cls-4 {
        stroke-miterlimit: 10;
      }

      .cls-1, .cls-4 {
        stroke-width: .37px;
      }

      .cls-2 {
        stroke-linecap: round;
        stroke-linejoin: round;
      }

      .cls-2, .cls-3 {
        stroke-width: .28px;
      }

      .cls-2, .cls-3, .cls-4 {
        fill: none;
      }
    </style>
  </defs>
  <path class="cls-4" d="M27.28,5.27v-1.03c0-1.15-.67-2.22-1.77-2.84-.61-.34-1.32-.53-2.05-.53h-3.52"/>
  <path class="cls-1" d="M27.28,5.27v8.74c0,1.15-.67,2.22-1.77,2.84-.61.34-1.32.53-2.05.53H5.21c-.73,0-1.44-.18-2.05-.53-1.1-.62-1.77-1.69-1.77-2.84V5.27s-.57,7.05-.66,9.41c-.1,2.58,2.01,4.67,4.58,4.67h17.95c2.58,0,4.66-2.09,4.57-4.67-.08-2.36-.56-9.41-.56-9.41Z"/>
  <path class="cls-4" d="M1.39,5.27v-1.03c0-1.15.67-2.22,1.77-2.84.61-.34,1.32-.53,2.05-.53h14.73c.73,0,1.44.18,2.05.53,1.1.62,1.77,1.69,1.77,2.84v9.77c0,1.15-.67,2.22-1.77,2.84-.61.34-1.32.53-2.05.53h-3.43c.73,0,1.44-.18,2.05-.53,1.1-.62,1.77-1.69,1.77-2.84V4.25c0-1.15-.67-2.22-1.77-2.84-.61-.34-1.32-.53-2.05-.53"/>
  <circle class="cls-3" cx="5.23" cy="13.15" r="1.66"/>
  <polyline class="cls-2" points="4.55 13.23 4.96 13.64 5.93 12.67"/>
</svg>